<svg xmlns="http://www.w3.org/2000/svg" xmlns:xlink="http://www.w3.org/1999/xlink" width="240" height="240" viewBox="0 0 240 240">
  <defs>
    <style>
      .cls-1 {
        clip-path: url(#clip-hrsol-Cloud_1);
      }

      .cls-2 {
        fill: #da862b;
      }

      .cls-3 {
        fill: #dd9b53;
      }

      .cls-4 {
        fill: #fff;
      }
    </style>
    <clipPath id="clip-hrsol-Cloud_1">
      <rect width="240" height="240"/>
    </clipPath>
  </defs>
  <g id="hrsol-Cloud_1" data-name="hrsol-Cloud – 1" class="cls-1">
    <g id="Group_383" data-name="Group 383" transform="translate(120.15 -25.523) rotate(45)">
      <path id="main" class="cls-2" d="M102.912,0A103,103,0,1,1,0,102.912,103.212,103.212,0,0,1,102.912,0Z" transform="translate(0 206) rotate(-90)"/>
      <path id="_1" data-name="1" class="cls-3" d="M102.912,0C159.8.048,205.952,45.834,206,102.267L.04,102.489a3.243,3.243,0,0,1-.04-.4C-.048,45.66,46.027-.048,102.912,0Z" transform="translate(0 206) rotate(-90)"/>
    </g>
    <g id="Group_162" data-name="Group 162" transform="translate(-80.043 -543.372)">
      <g id="Group_154" data-name="Group 154" transform="translate(168.569 664.451)">
        <g id="Group_151" data-name="Group 151" transform="translate(8.712 10.051)">
          <path id="Path_3993" data-name="Path 3993" class="cls-4" d="M247.18,811.765a.625.625,0,0,1-.442-.185,9.393,9.393,0,0,0-13.264,0,.627.627,0,0,1-.889-.885,10.644,10.644,0,0,1,15.037,0,.628.628,0,0,1-.442,1.071Z" transform="translate(-232.401 -807.584)"/>
        </g>
        <g id="Group_152" data-name="Group 152" transform="translate(5.179 5.195)">
          <path id="Path_3994" data-name="Path 3994" class="cls-4" d="M244.053,799.214a.631.631,0,0,1-.445-.184,14.39,14.39,0,0,0-20.329,0,.627.627,0,0,1-.885,0,.621.621,0,0,1,0-.885,15.643,15.643,0,0,1,22.1,0,.627.627,0,0,1-.442,1.07Z" transform="translate(-222.208 -793.573)"/>
        </g>
        <g id="Group_153" data-name="Group 153" transform="translate(0 0)">
          <path id="Path_3995" data-name="Path 3995" class="cls-4" d="M207.891,786.367a.627.627,0,0,1-.443-1.069,22.981,22.981,0,0,1,32.464,0,.626.626,0,0,1-.887.884,21.732,21.732,0,0,0-30.692,0A.622.622,0,0,1,207.891,786.367Z" transform="translate(-207.264 -778.585)"/>
        </g>
      </g>
      <g id="Group_330" data-name="Group 330" transform="translate(217.569 679.827)">
        <g id="Group_151-2" data-name="Group 151" transform="translate(4.197 4.841)">
          <path id="Path_3993-2" data-name="Path 3993" class="cls-4" d="M239.52,809.6a.3.3,0,0,1-.213-.089,4.525,4.525,0,0,0-6.389,0,.3.3,0,0,1-.428-.426,5.127,5.127,0,0,1,7.243,0,.3.3,0,0,1-.213.516Z" transform="translate(-232.401 -807.584)"/>
        </g>
        <g id="Group_152-2" data-name="Group 152" transform="translate(2.495 2.502)">
          <path id="Path_3994-2" data-name="Path 3994" class="cls-4" d="M232.73,796.29a.3.3,0,0,1-.215-.089,6.932,6.932,0,0,0-9.792,0,.3.3,0,0,1-.426,0,.3.3,0,0,1,0-.426,7.535,7.535,0,0,1,10.646,0,.3.3,0,0,1-.213.515Z" transform="translate(-222.208 -793.573)"/>
        </g>
        <g id="Group_153-2" data-name="Group 153" transform="translate(0 0)">
          <path id="Path_3995-2" data-name="Path 3995" class="cls-4" d="M207.566,782.334a.3.3,0,0,1-.214-.515,11.07,11.07,0,0,1,15.638,0,.3.3,0,0,1-.427.426,10.468,10.468,0,0,0-14.784,0A.3.3,0,0,1,207.566,782.334Z" transform="translate(-207.264 -778.585)"/>
        </g>
      </g>
      <path id="Path_3999" data-name="Path 3999" class="cls-4" d="M257.194,651.54a10.652,10.652,0,0,0-14.424-9.96,14.947,14.947,0,0,0,.4-3.4,14.552,14.552,0,0,0-14.551-14.55,14.321,14.321,0,0,0-3.8.512c.007-.266.015-.535.015-.8a19.436,19.436,0,0,0-38.873,0c0,.209.01.4.019.6A14.559,14.559,0,0,0,168.4,638.181a14.82,14.82,0,0,0,.289,2.914,10.458,10.458,0,0,0-2.06-.205,10.65,10.65,0,0,0-1.23,21.229v.071h82.375v-.071A10.653,10.653,0,0,0,257.194,651.54Z" transform="translate(-5.191)"/>
      <g id="Group_160" data-name="Group 160" transform="translate(148.043 679.827)">
        <path id="Path_4000" data-name="Path 4000" class="cls-4" d="M225.874,861.951c-4.473.02-3.09,0-6.786,0H174.35c-3.7,0,0,0-6.691-.017V823.017l58.206-.068c0,11.937-3.458,0,0,0Z" transform="translate(-160.86 -822.949)"/>
        <path id="Path_4001" data-name="Path 4001" class="cls-4" d="M227.85,859.005c0,3.117-.054,3.419,0,5.641H175.513c-.019-3.415,0-2.524,0-5.641V831.531c4.859,0,2.577-.13,5.756-.13l46.581.184v27.42Z" transform="translate(-165.987 -828.472)"/>
        <path id="Path_4002" data-name="Path 4002" class="cls-4" d="M220.041,937.181c0,.965-1.868,1.747-4.171,1.747H152.215c-2.3,0-4.172-.782-4.172-1.747h0c0-.967,1.869-1.751,4.172-1.751H215.87c2.3,0,4.171.784,4.171,1.751Z" transform="translate(-148.043 -896.445)"/>
        <path id="Path_4003" data-name="Path 4003" class="cls-4" d="M213.523,935.43v1.223c0,.683.957,1.243,2.117,1.243h22.375c1.168,0,2.106-.56,2.106-1.243V935.43Z" transform="translate(-190.828 -896.445)"/>
      </g>
      <g id="Group_161" data-name="Group 161" transform="translate(215.476 688.259)">
        <path id="Path_4004" data-name="Path 4004" class="cls-4" d="M362,878.233a3.271,3.271,0,0,1-3.264,3.268H345.864a3.265,3.265,0,0,1-3.261-3.268v-27.69a3.262,3.262,0,0,1,3.261-3.266h12.871A3.267,3.267,0,0,1,362,850.543Z" transform="translate(-342.603 -847.277)"/>
        <rect id="Rectangle_141" data-name="Rectangle 141" class="cls-4" width="17.387" height="26.021" transform="translate(1.002 3.667)"/>
        <path id="Path_4005" data-name="Path 4005" class="cls-4" d="M366.447,852.371a.45.45,0,0,1-.449.452h-8.423a.449.449,0,0,1-.447-.452h0a.447.447,0,0,1,.447-.45H366a.448.448,0,0,1,.449.45Z" transform="translate(-352.094 -850.311)"/>
        <path id="Path_4006" data-name="Path 4006" class="cls-4" d="M367.806,937.379a1.027,1.027,0,0,1-1.024,1.032H362.6a1.03,1.03,0,0,1-1.033-1.032h0a1.029,1.029,0,0,1,1.033-1.032h4.183a1.027,1.027,0,0,1,1.024,1.032Z" transform="translate(-354.994 -905.476)"/>
      </g>
    </g>
  </g>
</svg>
