<svg xmlns="http://www.w3.org/2000/svg" xmlns:xlink="http://www.w3.org/1999/xlink" width="240" height="240" viewBox="0 0 240 240">
  <defs>
    <style>
      .cls-1 {
        clip-path: url(#clip-hrsol-Face_id_2);
      }

      .cls-2 {
        fill: #33b65a;
      }

      .cls-3 {
        fill: #45bb68;
      }

      .cls-4, .cls-5 {
        fill: #fff;
      }

      .cls-5 {
        opacity: 0.55;
      }

      .cls-6 {
        fill: none;
        stroke: #fff;
        stroke-linecap: round;
        stroke-width: 5px;
      }
    </style>
    <clipPath id="clip-hrsol-Face_id_2">
      <rect width="240" height="240"/>
    </clipPath>
  </defs>
  <g id="hrsol-Face_id_2" data-name="hrsol-Face id – 2" class="cls-1">
    <g id="Group_382" data-name="Group 382" transform="translate(120.15 -20.523) rotate(45)">
      <path id="main" class="cls-2" d="M102.912,0A103,103,0,1,1,0,102.912,103.212,103.212,0,0,1,102.912,0Z" transform="translate(0 206) rotate(-90)"/>
      <path id="_1" data-name="1" class="cls-3" d="M102.912,0C159.8.048,205.952,45.834,206,102.267L.04,102.489a3.243,3.243,0,0,1-.04-.4C-.048,45.66,46.027-.048,102.912,0Z" transform="translate(0 206) rotate(-90)"/>
    </g>
    <g id="Group_147" data-name="Group 147" transform="translate(74.252 64.188)">
      <g id="Group_132" data-name="Group 132" transform="translate(0 74.358)">
        <path id="Path_3946" data-name="Path 3946" class="cls-4" d="M398.212,385.075c-15.5-6.235-20.6-13.983-19.275-25.132H361.9c1.323,11.149-3.779,18.9-19.275,25.132s-17.574,13.039-17.574,13.039h90.734S413.706,391.311,398.212,385.075Z" transform="translate(-325.051 -359.943)"/>
        <path id="Path_3947" data-name="Path 3947" class="cls-4" d="M374.72,378.108a26.314,26.314,0,0,0,12.449-3.138c-3.427-4.253-4.509-9.17-3.814-15.027H366.317c.7,5.9-.4,10.844-3.884,15.117A26.309,26.309,0,0,0,374.72,378.108Z" transform="translate(-329.469 -359.943)"/>
        <path id="Path_3948" data-name="Path 3948" class="cls-4" d="M398.212,387.472a44.958,44.958,0,0,1-12.527-7.106L371.4,393.635l-16.092-13.41a44.5,44.5,0,0,1-12.687,7.247c-15.494,6.236-17.574,13.038-17.574,13.038h90.734S413.706,393.708,398.212,387.472Z" transform="translate(-325.051 -362.34)"/>
      </g>
      <g id="Group_136" data-name="Group 136" transform="translate(6.105 47.496)">
        <g id="Group_133" data-name="Group 133">
          <path id="Path_3949" data-name="Path 3949" class="cls-4" d="M349.215,336.09c2.856,5.463,1.66,11.727-2.674,13.993s-10.159-.328-13.015-5.79-1.66-11.727,2.673-13.993S346.359,330.627,349.215,336.09Z" transform="translate(-331.975 -329.481)"/>
          <path id="Path_3950" data-name="Path 3950" class="cls-4" d="M347.157,347.04c-.017-.222-.059-.414-.082-.63.032.156.052.285.063.388a8.026,8.026,0,0,0-.472-2.735,13.248,13.248,0,0,0-10.9-10.178,28.581,28.581,0,0,1,8.808,7.977c-3.109-1.266-7.914,1.415-7.914,1.415,5.7-1.511,8.294-.26,9.485,1.192A12.667,12.667,0,0,1,347.157,347.04Z" transform="translate(-332.423 -330.002)"/>
        </g>
        <g id="Group_135" data-name="Group 135" transform="translate(59.499)">
          <g id="Group_134" data-name="Group 134">
            <path id="Path_3951" data-name="Path 3951" class="cls-4" d="M401,336.09c-2.855,5.463-1.659,11.727,2.674,13.993s10.159-.328,13.016-5.79,1.659-11.727-2.674-13.993S403.856,330.627,401,336.09Z" transform="translate(-399.448 -329.481)"/>
            <path id="Path_3952" data-name="Path 3952" class="cls-4" d="M404.05,347.04c.017-.222.059-.414.083-.63-.033.156-.053.285-.064.388a8.047,8.047,0,0,1,.472-2.735,13.249,13.249,0,0,1,10.9-10.178,28.561,28.561,0,0,0-8.808,7.977c3.108-1.266,7.913,1.415,7.913,1.415-5.7-1.511-8.294-.26-9.485,1.192A12.667,12.667,0,0,0,404.05,347.04Z" transform="translate(-399.992 -330.002)"/>
          </g>
        </g>
      </g>
      <g id="Group_137" data-name="Group 137" transform="translate(10.295)">
        <path id="Path_3953" data-name="Path 3953" class="cls-4" d="M405.659,306.541c3.518-7.7,7.814-21.3-9.584-29.231.125.064-7.44-6.31-20.887,5.28C370.9,286.354,365.15,288,359.7,286.2c-5.431-1.8-12.595-1.6-16.608,8.258a15.417,15.417,0,0,0-1.243,7.114c-1.257-1.583-2.978-2.617-4.587-.093-1.3,2-.226,10.869,2.911,18.885,0,0,1.831,19.26,10.611,22.251l8.646-11.848c7.163-.17,16.09-.4,23.433-.568l9.061,12.416c6.269-2.135,8.994-12.56,10.04-18.351.341-.379.677-.762,1.02-1.139,4.045-4.465,5.572-10.657,3.1-15.772Q405.886,306.941,405.659,306.541Z" transform="translate(-336.725 -275.619)"/>
        <path id="Path_3954" data-name="Path 3954" class="cls-4" d="M360.43,287.5c-5.431-1.8-12.595-1.6-16.608,8.258a18.493,18.493,0,0,0-.938,2.993l.225.547S348.418,286.884,360.43,287.5Z" transform="translate(-337.453 -276.92)"/>
        <path id="Path_3955" data-name="Path 3955" class="cls-4" d="M402.307,277.311c.1.05-4.472-3.8-12.851-.034,1.643-.013,22.566.217,25.265,20.723C415.983,290.936,414.3,282.778,402.307,277.311Z" transform="translate(-342.958 -275.619)"/>
      </g>
      <g id="Group_146" data-name="Group 146" transform="translate(18.786 17.667)">
        <path id="Path_3956" data-name="Path 3956" class="cls-4" d="M364.84,301.018a18.3,18.3,0,0,0-18.3,18.113l-.182,17.45c0,15.959,11.849,28.9,26.465,28.9s26.465-12.937,26.465-28.9l-.049-18.512c-.025-9.425-6.082-22.416-15.507-22.416Z" transform="translate(-346.355 -295.654)"/>
        <path id="Path_3958" data-name="Path 3958" class="cls-5" d="M399.248,318.07c-.025-9.425-6.082-22.416-15.507-22.416l-18.888,5.364a18.3,18.3,0,0,0-18.3,18.113l-.086,8.269,2.659-4.545c.013-.078,1.832-7.859,18.6-8.073,5.856-.076,12.985-1.792,17.616-8.506,1.668,5.011,4.453,9.516,7.771,12.222a12.548,12.548,0,0,0,6.15,2.826Z" transform="translate(-346.368 -295.654)"/>
        <path id="Path_3959" data-name="Path 3959" class="cls-4" d="M373.015,368.474a28.036,28.036,0,0,1-25.009-15.69c3.586,11.316,13.425,19.446,25.009,19.446s21.423-8.129,25.009-19.446A28.036,28.036,0,0,1,373.015,368.474Z" transform="translate(-346.55 -302.406)"/>
      </g>
      <path id="Path_3970" data-name="Path 3970" class="cls-4" d="M399.815,309.684l-12.427-21.239-30.03,9.087L341.252,317.05a18.7,18.7,0,0,1,4.648,4.5s1.739-10.017,21.17-10.266c12.751-.163,16.978-8.156,18.645-14.617.354,7.543,4.02,15.318,8.449,18.928a9.087,9.087,0,0,0,9.037,1.868Z" transform="translate(-326.966 -277.135)"/>
    </g>
    <path id="Path_3972" data-name="Path 3972" class="cls-6" d="M0,4.793V28.475H23.682" transform="translate(56.938 135.506)"/>
    <path id="Path_3975" data-name="Path 3975" class="cls-6" d="M23.682,4.793V28.475H0" transform="translate(160.194 135.506)"/>
    <path id="Path_3976" data-name="Path 3976" class="cls-6" d="M0,28.475V4.793H23.682" transform="translate(56.938 72.037)"/>
    <path id="Path_3977" data-name="Path 3977" class="cls-6" d="M23.682,28.475V4.793H0" transform="translate(160.194 72.037)"/>
  </g>
</svg>
